# xmcd
#
# Track frame offsets: 
#        150
#        16121
#        31673
#        43930
#        65713
#        79443
#        102992
#        121453
#        137894
#        153687
#        173917
#        186525
#        208046
#
# Disc length: 2971 seconds
#
# Revision: 1
# Processed by: cddbd v1.5.2PL0 Copyright (c) Steve Scherf et al.
# Submitted via: ExactAudioCopy v1.3
#
DISCID=bf0b990d
DTITLE=Various Artist - Blues Revue sampler, Oct-Nov 2009
DYEAR=2009
DGENRE=Blues
TTITLE0=Alabama Mike - Day to day
TTITLE1=Monkeyjunk - Small time evil
TTITLE2=Greg Nagy - Won't cry
TTITLE3=Joanne Shaw Taylor - Going home
TTITLE4=Big Pete Pearson - Don't mess with me
TTITLE5=Enrico Crivellaro - Casa Babylon
TTITLE6=Cyril Neville - Cream them beans
TTITLE7=Izzy and Chris - Steady rollin' daddy
TTITLE8=Homemade Jamz Blues Band - Roots
TTITLE9=Harmonica Shah - Every goodbye ain't gone
TTITLE10=Big Bill Morganfield - High gas prices
TTITLE11=Deanna Bogart, Dan Leonard, Scott Ambush and Mike Aubin - Heart
TTITLE11='n soul
TTITLE12=Ben Prestage - Memphis
EXTD=
EXTT0=
EXTT1=
EXTT2=
EXTT3=
EXTT4=
EXTT5=
EXTT6=
EXTT7=
EXTT8=
EXTT9=
EXTT10=
EXTT11=
EXTT12=
PLAYORDER=
